<svg width="915" height="126" viewBox="0 0 915 126" fill="none" xmlns="http://www.w3.org/2000/svg">
<path d="M466.71 119.54L392 44.83V0H511.54V29.88H421.88L511.53 119.53H466.7L466.71 119.54Z" fill="white"/>
<path d="M526.48 119.54V0H646.02V119.54H526.48ZM616.13 89.66V29.89H556.36V89.66H616.13Z" fill="white"/>
<path d="M660.96 119.54V0H780.5V44.83L705.79 119.54H660.96ZM750.61 29.89H690.84V89.66L750.61 29.89Z" fill="white"/>
<path d="M795.44 29.88V0H914.98V29.88H795.44ZM795.44 74.71V44.83H914.98V74.71H795.44ZM795.44 119.54V89.66H914.98V119.54H795.44Z" fill="white"/>
<path d="M0 125.16V0H31.29V62.58L93.87 0H109.51V31.29L70.4 70.4L109.51 109.51V125.16H78.22L46.93 93.87L31.29 109.52V125.17H0V125.16Z" fill="white"/>
<path d="M125.16 31.29V0H250.32V31.29H125.16ZM125.16 78.23V46.94H250.32V78.23H125.16ZM125.16 125.17V93.88H250.32V125.17H125.16Z" fill="white"/>
<path d="M305.08 125.16V70.4L265.97 31.29V0H281.62L320.73 39.11L359.84 0H375.48V31.29L336.37 70.4V125.16H305.08Z" fill="white"/>
</svg>
